{"glyphs":{":":{"x_min":0,"x_max":198,"ha":198,"o":"m 29 38 q 29 48 32 56 q 36 65 42 71 q 48 78 57 81 q 65 85 75 85 q 84 85 93 81 q 102 78 108 71 q 114 65 118 56 q 122 48 122 38 q 122 19 108 6 q 94 -8 75 -8 q 56 -8 42 6 q 29 19 29 38 z m 80 437 q 80 446 84 455 q 87 464 93 470 q 100 476 108 480 q 116 484 126 484 q 136 484 144 480 q 153 476 159 470 q 166 464 169 455 q 173 446 173 437 q 173 418 159 404 q 146 391 126 391 q 106 391 93 404 q 80 418 80 437 z"},"$":{"x_min":0,"x_max":580,"ha":580,"o":"m 240 -8 q 176 -4 132 20 q 88 44 57 84 l 72 104 q 78 110 88 110 q 92 110 98 105 q 104 100 112 91 q 120 83 132 73 q 144 63 160 54 q 176 46 198 39 q 219 33 247 32 l 302 352 q 272 362 244 374 q 216 386 193 404 q 171 422 158 448 q 144 474 144 512 q 144 550 159 586 q 174 622 203 650 q 232 678 272 696 q 314 713 365 714 l 380 798 q 380 805 385 809 q 390 814 396 814 l 414 814 l 396 714 q 446 710 482 692 q 518 674 545 642 l 532 625 q 526 617 519 617 q 513 617 504 625 q 496 634 481 644 q 466 654 444 663 q 422 672 390 675 l 340 387 q 372 376 403 364 q 434 352 459 335 q 484 317 499 291 q 514 265 514 226 q 514 180 497 139 q 480 98 448 66 q 417 34 372 14 q 328 -5 272 -8 l 254 -114 q 252 -120 248 -124 q 244 -129 237 -129 l 220 -129 z m 468 215 q 468 244 457 264 q 446 284 427 298 q 408 312 384 323 q 359 333 332 342 l 278 32 q 323 34 358 50 q 394 65 418 90 q 442 114 456 147 q 468 179 468 215 z m 188 522 q 188 494 198 475 q 208 456 224 442 q 242 428 264 417 q 286 406 310 398 l 358 676 q 316 674 285 660 q 253 646 232 626 q 210 604 199 578 q 188 550 188 522 z"},"?":{"x_min":0,"x_max":342,"ha":342,"o":"m 64 645 q 78 658 95 671 q 112 684 133 694 q 153 704 176 710 q 199 716 225 716 q 256 716 281 706 q 307 696 326 679 q 344 662 355 637 q 366 613 366 584 q 366 542 353 512 q 341 483 322 461 q 303 439 281 423 q 258 406 238 392 q 218 376 203 361 q 188 346 184 326 l 168 244 l 136 244 l 144 328 q 146 350 161 368 q 175 385 194 400 q 214 416 236 432 q 259 448 278 468 q 297 488 310 514 q 322 540 322 576 q 322 599 314 618 q 306 636 292 650 q 278 663 258 670 q 239 677 217 677 q 186 677 163 668 q 140 660 124 649 q 108 638 98 630 q 88 621 83 621 q 77 621 74 627 z m 90 38 q 90 48 94 56 q 98 65 104 71 q 110 78 118 81 q 126 85 136 85 q 146 85 154 81 q 163 78 169 71 q 176 65 179 56 q 183 48 183 38 q 183 28 179 20 q 176 12 169 6 q 163 0 154 -4 q 146 -8 136 -8 q 117 -8 104 6 q 90 19 90 38 z"},"<":{"x_min":0,"x_max":534,"ha":534,"o":"m 89 346 l 488 538 l 484 506 q 482 496 468 488 l 174 348 q 166 344 156 341 q 147 338 137 336 q 157 330 171 323 l 430 182 q 442 177 442 168 q 442 167 442 166 q 442 166 441 162 q 440 159 440 152 q 439 145 438 132 l 86 326 z"},"'":{"x_min":0,"x_max":204,"ha":204,"o":"m 178 708 l 160 562 l 148 484 q 146 476 142 472 q 138 468 130 468 q 122 468 120 472 q 116 476 116 484 l 120 562 l 140 708 z"},"=":{"x_min":0,"x_max":580,"ha":580,"o":"m 84 278 l 498 278 l 493 242 l 80 242 z m 104 434 l 516 434 l 512 398 l 99 398 z"},"a":{"x_min":0,"x_max":489,"ha":489,"o":"m 382 0 l 360 0 q 350 0 346 4 q 342 9 342 16 l 359 172 q 340 132 317 99 q 294 66 269 43 q 243 20 214 6 q 186 -6 156 -6 q 124 -6 100 6 q 77 18 61 40 q 46 63 38 95 q 30 127 30 167 q 30 210 40 252 q 52 294 72 332 q 92 369 120 400 q 148 432 182 455 q 216 478 254 491 q 292 504 334 504 q 364 504 390 499 q 416 494 441 480 z m 171 33 q 200 33 227 49 q 255 65 280 94 q 305 124 327 165 q 350 206 367 256 l 392 458 q 362 468 328 468 q 294 468 263 457 q 232 446 204 426 q 176 406 153 378 q 130 351 112 318 q 96 286 86 249 q 77 212 77 174 q 77 108 100 70 q 122 33 171 33 z"},"L":{"x_min":0,"x_max":470,"ha":470,"o":"m 120 42 l 428 42 l 422 0 l 66 0 l 152 708 l 202 708 z"},"3":{"x_min":0,"x_max":580,"ha":580,"o":"m 364 716 q 402 716 434 705 q 466 695 490 675 q 514 656 528 626 q 542 596 542 558 q 542 518 529 487 q 516 456 494 432 q 472 408 443 393 q 413 377 380 369 q 414 362 440 349 q 466 335 483 315 q 500 296 509 270 q 518 245 518 216 q 518 168 498 127 q 478 86 443 56 q 408 26 362 9 q 316 -8 264 -8 q 216 -8 180 4 q 144 15 118 38 q 92 61 78 95 q 62 128 56 173 l 77 180 q 82 182 86 182 q 92 182 97 179 q 102 176 102 171 q 110 136 122 110 q 134 84 154 66 q 174 48 202 40 q 230 32 269 32 q 318 32 355 48 q 393 65 419 91 q 444 118 458 150 q 472 182 472 214 q 472 242 462 266 q 454 290 432 308 q 410 326 374 336 q 338 346 284 346 l 288 380 q 337 381 376 394 q 414 406 441 428 q 468 450 482 481 q 496 512 496 550 q 496 582 484 606 q 474 630 455 645 q 436 661 411 668 q 386 676 358 676 q 324 676 294 666 q 264 656 240 638 q 216 620 199 595 q 182 569 172 537 q 169 528 164 524 q 158 520 152 520 q 148 520 146 521 l 123 524 q 134 570 157 605 q 180 640 212 665 q 243 690 282 702 q 321 716 364 716 z"},";":{"x_min":0,"x_max":198,"ha":198,"o":"m 30 42 q 30 60 42 72 q 54 85 74 85 q 95 85 107 70 q 118 56 118 32 q 118 11 113 -10 q 108 -32 98 -52 q 88 -72 74 -92 q 60 -110 43 -126 l 35 -119 q 32 -117 32 -115 q 32 -112 32 -110 q 32 -106 39 -97 q 47 -88 57 -73 q 66 -59 76 -40 q 84 -22 87 0 q 84 -1 80 -2 q 76 -2 72 -2 q 54 -2 42 10 q 30 23 30 42 z m 86 437 q 86 446 89 455 q 92 464 99 470 q 105 476 113 480 q 122 484 132 484 q 141 484 150 480 q 158 476 165 470 q 171 464 175 455 q 178 446 178 437 q 178 418 165 404 q 151 391 132 391 q 112 391 99 404 q 86 418 86 437 z"},"J":{"x_min":0,"x_max":417,"ha":417,"o":"m 318 220 q 311 162 293 119 q 275 76 248 48 q 220 20 184 6 q 148 -8 104 -8 q 77 -8 55 -4 q 32 -1 11 6 l 15 34 q 16 38 18 41 q 21 44 28 44 q 33 44 39 43 q 45 41 54 39 q 62 37 75 35 q 87 34 104 34 q 134 34 161 43 q 188 52 210 74 q 232 96 247 131 q 262 167 268 220 l 328 708 l 378 708 z"},"V":{"x_min":0,"x_max":596,"ha":596,"o":"m 64 708 l 103 708 q 110 708 114 704 q 118 700 119 694 l 266 104 q 268 94 271 82 q 274 70 275 56 q 280 70 284 82 q 289 94 294 104 l 586 694 q 588 700 594 704 q 599 708 606 708 l 645 708 l 290 0 l 246 0 z"},"\"":{"x_min":0,"x_max":339,"ha":339,"o":"m 178 708 l 160 562 l 148 484 q 146 476 142 472 q 138 468 130 468 q 122 468 120 472 q 116 476 116 484 l 120 562 l 140 708 z m 314 708 l 296 562 l 283 484 q 281 476 277 472 q 274 468 265 468 q 258 468 255 472 q 252 476 251 484 l 256 562 l 275 708 z"},"7":{"x_min":0,"x_max":580,"ha":580,"o":"m 592 708 l 590 690 q 590 683 588 676 q 586 670 583 665 l 174 14 q 170 8 165 4 q 159 0 150 0 l 114 0 l 522 642 q 526 648 530 654 q 534 660 539 665 l 130 665 q 124 665 121 668 q 118 672 118 676 l 122 708 z"},"S":{"x_min":0,"x_max":481,"ha":481,"o":"m 458 622 q 452 614 445 614 q 439 614 430 623 q 422 632 407 644 q 392 655 369 664 q 346 674 311 674 q 273 674 243 662 q 214 650 193 628 q 172 607 161 579 q 150 550 150 518 q 150 488 162 467 q 175 446 195 432 q 216 417 241 406 q 267 396 294 385 q 322 375 347 363 q 373 350 393 333 q 414 316 426 290 q 438 266 438 229 q 438 181 422 138 q 406 94 375 62 q 344 30 300 11 q 256 -8 202 -8 q 138 -8 94 17 q 50 42 20 84 l 36 106 q 43 113 50 113 q 54 113 60 107 q 66 101 74 92 q 82 84 94 73 q 105 63 121 54 q 137 46 158 40 q 180 34 208 34 q 250 34 284 48 q 318 62 342 87 q 366 112 378 146 q 391 180 391 218 q 391 250 378 270 q 366 291 346 306 q 326 320 300 330 q 274 340 247 350 q 220 360 194 372 q 168 384 148 402 q 128 420 115 445 q 103 471 103 508 q 103 549 118 586 q 132 624 159 653 q 186 682 226 698 q 266 716 316 716 q 367 716 406 697 q 444 678 472 642 z"},"}":{"x_min":0,"x_max":276,"ha":276,"o":"m 194 393 q 194 364 212 346 q 228 328 257 328 l 254 298 q 216 298 194 270 q 170 240 170 181 q 170 151 174 116 q 178 82 178 52 q 178 9 167 -25 q 156 -58 136 -82 q 117 -106 89 -119 q 62 -132 27 -132 l 2 -132 l 4 -112 q 4 -106 9 -103 q 14 -100 18 -100 l 32 -100 q 61 -100 81 -88 q 101 -75 113 -54 q 126 -32 131 -5 q 136 22 136 52 q 136 85 134 118 q 132 151 132 182 q 132 204 136 226 q 140 246 149 264 q 159 282 174 294 q 190 307 214 314 q 202 316 191 323 q 180 330 173 340 q 165 350 160 364 q 156 377 156 393 q 156 424 164 453 q 172 482 183 512 q 193 542 202 573 q 210 604 210 636 q 210 656 204 673 q 199 690 189 702 q 180 714 165 720 q 151 726 134 726 l 118 726 q 115 726 112 729 q 108 732 108 736 q 108 736 108 737 q 108 738 108 740 q 108 742 109 746 q 110 750 110 758 l 136 758 q 164 758 185 749 q 206 740 221 723 q 236 706 243 684 q 250 662 250 636 q 250 602 242 571 q 233 540 222 511 q 212 482 203 453 q 194 424 194 393 z"},"Z":{"x_min":0,"x_max":582,"ha":582,"o":"m 592 708 l 590 691 q 589 686 587 683 q 586 680 582 676 l 95 41 l 507 41 l 502 0 l 22 0 l 24 16 q 24 20 27 24 q 29 27 32 31 l 520 666 l 116 666 l 122 708 z"},"x":{"x_min":0,"x_max":426,"ha":426,"o":"m 185 266 l 60 498 l 100 498 q 106 498 109 496 q 112 494 114 490 l 219 291 q 222 298 227 304 l 371 489 q 374 493 377 495 q 380 498 384 498 l 426 498 l 244 266 l 384 0 l 344 0 q 337 0 333 3 q 330 6 327 11 l 210 239 q 206 232 202 226 l 35 10 q 32 6 28 3 q 24 0 18 0 l -22 0 z"},")":{"x_min":0,"x_max":276,"ha":276,"o":"m 174 406 q 174 445 170 487 q 166 529 157 571 q 149 612 137 653 q 124 693 108 729 q 106 734 106 738 q 106 742 108 745 q 110 748 114 750 l 136 762 q 157 718 172 673 q 187 628 197 583 q 206 538 211 495 q 216 452 216 412 q 216 368 213 327 q 210 286 203 244 q 196 203 182 160 q 170 118 148 72 q 127 26 97 -25 q 67 -75 26 -132 l 7 -120 q 2 -116 2 -110 q 2 -106 6 -98 q 48 -39 79 18 q 110 75 132 135 q 152 195 163 261 q 174 328 174 406 z"},"&":{"x_min":0,"x_max":637,"ha":637,"o":"m 359 716 q 390 716 416 705 q 442 695 460 676 q 479 658 489 632 q 500 606 500 574 l 474 570 q 472 570 472 569 q 470 569 470 569 q 460 569 458 581 q 456 597 450 614 q 444 632 432 646 q 420 660 401 670 q 382 679 356 679 q 325 679 300 668 q 274 657 256 638 q 238 618 228 592 q 218 566 218 535 q 218 500 234 465 q 249 430 278 393 l 455 176 q 480 212 496 250 q 512 289 520 324 q 520 330 524 334 q 526 337 533 337 l 563 337 q 556 290 535 240 q 514 190 480 145 l 598 0 l 560 0 q 548 0 541 3 q 534 6 527 14 l 450 109 q 426 84 400 62 q 372 40 342 25 q 312 10 278 1 q 244 -8 209 -8 q 174 -8 142 3 q 112 14 88 36 q 66 57 52 88 q 38 119 38 158 q 38 199 53 235 q 68 272 92 302 q 117 332 150 355 q 184 378 222 393 q 198 428 186 461 q 174 494 174 530 q 174 570 188 604 q 201 638 226 662 q 250 688 284 702 q 318 716 359 716 z m 86 164 q 86 131 98 106 q 109 80 128 64 q 146 46 170 38 q 194 30 218 30 q 250 30 278 38 q 307 46 333 60 q 360 75 383 95 q 406 115 426 138 l 240 368 q 205 354 176 332 q 148 310 128 284 q 108 258 97 228 q 86 197 86 164 z"},"_":{"x_min":0,"x_max":363,"ha":363,"o":"m 320 -104 l 316 -136 l -47 -136 l -43 -104 z"},"v":{"x_min":0,"x_max":450,"ha":450,"o":"m 41 498 l 78 498 q 84 498 88 494 q 92 490 93 486 l 194 93 q 196 82 198 70 q 199 60 200 48 q 206 69 217 93 l 416 486 q 418 491 423 494 q 428 498 433 498 l 468 498 l 214 0 l 174 0 z"},"O":{"x_min":0,"x_max":732,"ha":732,"o":"m 696 408 q 696 314 669 238 q 642 162 594 107 q 545 52 479 22 q 413 -8 336 -8 q 274 -8 224 15 q 174 37 139 78 q 104 118 84 174 q 66 231 66 300 q 66 392 93 469 q 120 546 169 601 q 217 656 283 686 q 348 716 425 716 q 488 716 538 693 q 588 671 623 630 q 658 590 678 533 q 696 476 696 408 z m 645 407 q 645 468 629 518 q 614 567 584 602 q 554 636 513 655 q 471 674 420 674 q 354 674 299 648 q 244 622 203 574 q 162 525 139 456 q 116 387 116 301 q 116 240 132 190 q 148 141 178 106 q 207 72 248 53 q 290 34 342 34 q 408 34 463 60 q 518 86 559 134 q 600 183 622 252 q 645 320 645 407 z"},"(":{"x_min":0,"x_max":276,"ha":276,"o":"m 120 225 q 120 186 124 144 q 128 102 136 60 q 144 18 156 -22 q 169 -62 186 -98 q 188 -103 188 -107 q 188 -112 185 -114 q 183 -118 180 -120 l 158 -132 q 136 -88 122 -42 q 106 3 97 48 q 87 92 82 136 q 78 179 78 219 q 78 262 80 303 q 83 344 90 386 q 98 428 111 470 q 124 513 145 559 q 166 605 196 655 q 226 706 268 762 l 286 750 q 292 746 292 741 q 292 736 288 729 q 246 670 214 612 q 183 556 162 496 q 141 436 130 369 q 120 303 120 225 z"},"C":{"x_min":0,"x_max":634,"ha":634,"o":"m 340 34 q 376 34 405 41 q 434 47 456 56 q 479 66 495 76 q 512 87 523 96 q 534 106 542 112 q 549 118 553 118 q 558 118 560 115 l 577 94 q 554 70 528 52 q 502 33 472 20 q 442 6 407 -1 q 372 -8 332 -8 q 271 -8 222 14 q 172 36 138 76 q 103 117 84 174 q 66 230 66 299 q 66 392 94 468 q 122 545 171 600 q 220 655 287 685 q 354 716 431 716 q 468 716 496 710 q 526 704 550 693 q 574 682 594 666 q 614 649 634 628 l 618 608 q 612 602 604 602 q 598 602 588 613 q 578 624 558 637 q 539 650 508 662 q 476 672 428 672 q 362 672 306 646 q 248 620 206 572 q 164 524 140 456 q 116 388 116 302 q 116 240 132 191 q 149 141 178 106 q 208 72 249 53 q 290 34 340 34 z"},"W":{"x_min":0,"x_max":910,"ha":910,"o":"m 64 708 l 104 708 q 118 708 120 694 l 213 106 q 214 97 215 87 q 216 76 216 66 q 220 76 224 87 q 228 97 232 106 l 487 694 q 490 700 494 704 q 500 708 506 708 l 518 708 q 531 708 534 694 l 644 106 q 646 98 647 87 q 648 77 649 66 q 652 77 656 87 q 659 98 662 106 l 900 694 q 902 700 908 704 q 914 708 920 708 l 959 708 l 667 0 l 622 0 l 507 616 q 506 622 505 628 q 504 635 504 642 q 501 635 499 628 q 496 622 494 616 l 227 0 l 182 0 z"},"A":{"x_min":0,"x_max":590,"ha":590,"o":"m 556 0 l 518 0 q 511 0 507 4 q 502 8 501 13 l 450 220 l 134 220 l 32 13 q 30 8 24 4 q 19 0 12 0 l -26 0 l 328 708 l 376 708 z m 152 256 l 442 256 l 354 616 q 352 625 350 636 q 348 646 346 658 q 345 654 342 648 q 340 642 336 636 q 334 629 331 624 q 328 618 328 616 z"},"f":{"x_min":0,"x_max":283,"ha":283,"o":"m 152 447 l 100 10 l 78 -104 q 76 -116 70 -120 q 64 -125 54 -125 l 36 -125 l 106 446 l 44 450 q 32 452 32 462 q 32 462 33 465 q 33 468 34 482 l 110 482 l 118 545 q 124 588 138 620 q 152 652 174 674 q 196 695 224 706 q 251 716 282 716 q 296 716 310 714 q 324 711 336 706 l 330 682 q 330 676 323 676 q 318 676 308 678 q 298 680 284 680 q 262 680 242 673 q 222 666 206 649 q 190 633 179 607 q 168 581 163 544 l 155 482 l 296 482 l 291 447 z"},"Q":{"x_min":0,"x_max":732,"ha":732,"o":"m 696 408 q 696 344 683 287 q 670 230 646 184 q 622 136 587 100 q 553 63 510 38 l 656 -156 l 617 -156 q 607 -156 600 -154 q 592 -151 588 -144 l 468 18 q 406 -8 336 -8 q 274 -8 224 15 q 174 37 139 78 q 104 118 84 174 q 66 231 66 300 q 66 392 93 469 q 120 546 169 601 q 217 656 283 686 q 348 716 425 716 q 488 716 538 693 q 588 671 623 630 q 658 590 678 533 q 696 476 696 408 z m 645 407 q 645 468 629 518 q 614 567 584 602 q 554 636 513 655 q 471 674 420 674 q 354 674 299 648 q 244 622 203 574 q 162 525 139 456 q 116 387 116 301 q 116 240 132 190 q 148 141 178 106 q 207 72 248 53 q 290 34 342 34 q 408 34 463 60 q 518 86 559 134 q 600 183 622 252 q 645 320 645 407 z"},"w":{"x_min":0,"x_max":680,"ha":680,"o":"m 42 498 l 76 498 q 88 498 91 486 l 158 93 q 160 82 160 72 q 160 62 160 52 q 164 62 168 72 q 172 82 177 93 l 348 489 q 352 500 363 500 l 381 500 q 392 500 394 489 l 467 93 q 470 82 470 71 q 471 60 472 50 q 475 60 478 71 q 482 82 487 93 l 650 486 q 652 491 657 494 q 661 498 666 498 l 700 498 l 486 0 l 452 0 q 445 0 443 10 l 366 414 q 364 427 364 438 q 360 426 355 414 l 179 10 q 175 0 167 0 l 134 0 z"},"-":{"x_min":0,"x_max":306,"ha":306,"o":"m 55 316 l 269 316 l 264 277 l 50 277 z"},"E":{"x_min":0,"x_max":544,"ha":544,"o":"m 538 666 l 198 666 l 162 378 l 446 378 l 440 338 l 157 338 l 120 41 l 462 41 l 457 0 l 66 0 l 152 708 l 544 708 z"},"s":{"x_min":0,"x_max":385,"ha":385,"o":"m 355 436 q 351 430 344 430 q 339 430 332 436 q 324 442 312 450 q 300 458 281 464 q 262 470 235 470 q 210 470 187 462 q 164 453 147 439 q 130 424 121 406 q 111 387 111 366 q 111 346 120 332 q 130 318 146 307 q 162 297 181 290 q 201 282 222 274 q 243 267 263 258 q 282 248 298 236 q 314 222 324 204 q 333 185 333 158 q 333 126 320 96 q 308 66 284 43 q 260 20 227 6 q 194 -8 153 -8 q 104 -8 72 9 q 40 26 16 52 l 28 70 q 30 74 34 76 q 36 78 41 78 q 46 78 54 70 q 61 62 74 52 q 88 42 108 34 q 128 26 160 26 q 189 26 213 36 q 238 46 255 62 q 272 80 282 102 q 291 124 291 149 q 291 171 282 186 q 272 201 256 212 q 241 222 221 230 q 201 238 180 245 q 160 252 140 261 q 120 270 104 282 q 88 294 79 312 q 70 330 70 356 q 70 386 82 412 q 94 439 117 460 q 140 480 170 493 q 202 505 238 505 q 280 505 312 492 q 342 479 366 453 z"},">":{"x_min":0,"x_max":534,"ha":534,"o":"m 468 325 l 70 132 l 74 165 q 76 176 90 182 l 384 322 q 392 326 401 330 q 410 333 420 336 q 400 340 386 348 l 127 488 q 116 494 116 504 q 116 504 116 505 q 116 506 116 509 q 117 512 118 519 q 118 526 120 538 l 471 346 z"},"l":{"x_min":0,"x_max":223,"ha":223,"o":"m 58 0 l 146 728 l 192 728 l 104 0 z"},"8":{"x_min":0,"x_max":580,"ha":580,"o":"m 259 -8 q 212 -8 174 4 q 136 16 108 39 q 81 62 66 93 q 51 125 51 164 q 51 208 64 243 q 78 278 102 304 q 126 329 159 345 q 192 362 230 370 q 176 386 148 424 q 120 462 120 514 q 120 556 136 593 q 153 630 183 657 q 213 684 255 700 q 296 716 348 716 q 391 716 425 703 q 459 690 483 668 q 506 646 519 617 q 531 588 531 554 q 531 520 521 491 q 510 461 491 437 q 472 413 444 396 q 416 378 380 368 q 410 362 435 348 q 460 335 477 316 q 495 296 505 270 q 514 244 514 210 q 514 160 495 119 q 476 78 441 50 q 407 22 360 7 q 314 -8 259 -8 z m 263 29 q 308 29 345 42 q 382 54 410 78 q 436 102 452 135 q 467 168 467 210 q 467 250 452 276 q 436 303 412 319 q 388 336 359 342 q 330 349 302 349 q 280 349 257 345 q 234 342 212 333 q 189 324 169 310 q 148 296 133 276 q 118 256 109 230 q 100 203 100 168 q 100 137 112 112 q 123 86 144 68 q 165 49 195 39 q 226 29 263 29 z m 307 386 q 352 386 386 401 q 420 415 442 438 q 464 462 475 491 q 486 520 486 552 q 486 578 476 602 q 467 625 449 642 q 431 660 404 669 q 378 679 344 679 q 302 679 269 666 q 236 654 213 632 q 190 610 178 580 q 165 550 165 516 q 165 491 173 468 q 182 444 199 426 q 216 408 243 397 q 270 386 307 386 z"},"\\":{"x_min":0,"x_max":330,"ha":330,"o":"m 56 722 l 76 722 q 96 722 100 704 l 292 -42 l 274 -42 q 265 -42 258 -38 q 250 -33 248 -24 z"},"e":{"x_min":0,"x_max":446,"ha":446,"o":"m 418 402 q 418 382 413 364 q 408 345 394 328 q 380 312 356 297 q 332 282 294 270 q 256 258 204 248 q 152 238 82 231 q 82 220 81 210 q 80 200 80 190 q 80 116 114 74 q 148 32 216 32 q 242 32 264 37 q 285 43 302 52 q 318 61 331 71 q 344 81 354 90 q 364 99 371 105 q 378 110 384 110 q 390 110 395 106 l 406 92 q 382 66 358 48 q 335 29 311 17 q 288 5 262 -1 q 236 -6 208 -6 q 166 -6 134 7 q 102 21 80 46 q 58 72 46 108 q 34 144 34 189 q 34 226 42 264 q 50 302 64 338 q 79 372 101 403 q 122 434 150 456 q 178 478 212 492 q 246 504 286 504 q 322 504 348 494 q 373 484 389 469 q 404 454 412 436 q 418 418 418 402 z m 284 470 q 244 470 211 452 q 179 436 154 407 q 130 379 113 342 q 96 304 88 264 q 152 271 198 280 q 244 290 276 300 q 308 310 327 322 q 347 334 358 347 q 369 360 373 373 q 376 386 376 401 q 376 412 372 424 q 367 436 356 446 q 345 456 327 463 q 310 470 284 470 z"},"b":{"x_min":0,"x_max":508,"ha":508,"o":"m 50 0 l 138 728 l 185 728 l 136 330 q 156 369 180 401 q 204 434 230 456 q 257 480 286 492 q 316 505 346 505 q 378 505 402 492 q 427 480 444 457 q 460 434 468 402 q 477 370 477 330 q 477 291 469 251 q 461 212 446 174 q 432 137 410 104 q 389 71 362 46 q 335 22 303 8 q 270 -6 234 -6 q 192 -6 157 13 q 122 32 101 70 l 92 16 q 90 8 86 4 q 83 0 74 0 z m 330 466 q 302 466 273 450 q 244 434 217 406 q 190 376 167 336 q 144 294 126 244 l 108 102 q 119 83 133 69 q 146 56 162 47 q 178 38 195 35 q 212 31 229 31 q 260 31 288 44 q 315 56 337 78 q 360 100 377 130 q 394 159 406 192 q 418 224 424 258 q 430 292 430 325 q 430 392 404 429 q 379 466 330 466 z"},"%":{"x_min":0,"x_max":707,"ha":707,"o":"m 353 568 q 353 517 339 478 q 326 439 303 413 q 280 387 252 374 q 222 361 192 361 q 166 361 144 370 q 122 380 107 398 q 91 416 82 444 q 74 471 74 506 q 74 558 86 597 q 100 636 122 662 q 144 688 173 702 q 202 715 235 715 q 260 715 282 706 q 304 696 319 678 q 335 659 344 632 q 353 604 353 568 z m 316 568 q 316 598 310 620 q 303 642 292 656 q 280 670 264 677 q 249 684 231 684 q 207 684 185 674 q 163 664 146 642 q 130 620 120 586 q 110 553 110 506 q 110 476 116 455 q 123 434 134 420 q 146 406 161 399 q 177 392 195 392 q 219 392 241 402 q 262 412 279 434 q 296 455 306 488 q 316 522 316 568 z m 616 698 q 620 702 624 705 q 628 708 636 708 l 668 708 l 114 8 q 106 0 96 0 l 62 0 z m 660 199 q 660 148 646 109 q 632 70 610 44 q 588 18 558 5 q 530 -8 498 -8 q 473 -8 451 1 q 430 10 414 29 q 398 48 390 74 q 381 102 381 137 q 381 188 394 228 q 407 267 429 293 q 451 320 480 333 q 510 346 542 346 q 568 346 589 336 q 610 327 626 308 q 642 290 651 262 q 660 235 660 199 z m 623 199 q 623 229 616 251 q 610 272 598 287 q 587 301 572 308 q 556 314 538 314 q 514 314 492 304 q 470 294 454 272 q 437 250 427 217 q 417 184 417 137 q 417 108 424 86 q 430 64 442 50 q 453 36 469 30 q 484 23 502 23 q 526 23 548 33 q 570 43 586 64 q 603 86 613 119 q 623 152 623 199 z"},"m":{"x_min":0,"x_max":774,"ha":774,"o":"m 46 0 l 106 499 l 128 499 q 146 499 146 481 l 132 342 q 170 420 222 462 q 272 505 329 505 q 379 505 400 474 q 422 442 422 383 q 422 366 420 346 q 440 386 463 416 q 486 446 512 466 q 538 486 564 495 q 592 505 618 505 q 672 505 695 471 q 718 438 718 375 q 718 370 718 364 q 718 358 717 344 q 716 330 713 307 q 710 283 706 243 q 702 203 694 144 q 688 84 678 0 l 631 0 l 668 318 q 670 334 672 347 q 672 361 672 374 q 672 418 657 442 q 642 465 603 465 q 578 465 553 454 q 528 442 504 420 q 480 398 458 364 q 436 330 418 284 l 385 0 l 338 0 l 376 318 q 380 352 380 380 q 380 422 366 443 q 352 465 314 465 q 258 465 209 413 q 161 361 124 266 l 93 0 z"},"#":{"x_min":0,"x_max":580,"ha":580,"o":"m 372 222 l 298 0 l 278 0 q 272 0 268 4 q 264 7 264 14 q 264 17 266 22 l 333 222 l 183 222 l 116 20 q 112 9 106 4 q 99 0 91 0 l 70 0 l 144 222 l 53 222 q 40 222 40 234 q 40 236 40 237 q 40 239 41 242 l 44 256 l 154 256 l 219 452 l 92 452 l 98 470 q 101 486 122 486 l 228 486 l 297 688 q 300 698 307 703 q 314 708 322 708 l 342 708 l 268 486 l 417 486 l 492 708 l 512 708 q 518 708 522 704 q 526 701 526 695 q 526 692 524 687 l 456 486 l 569 486 l 563 468 q 560 460 555 456 q 550 452 540 452 l 446 452 l 382 256 l 494 256 q 508 256 508 243 q 508 242 508 240 q 508 238 508 236 l 503 222 z m 192 256 l 342 256 l 408 452 l 258 452 z"},",":{"x_min":0,"x_max":198,"ha":198,"o":"m 32 42 q 32 60 44 72 q 56 85 75 85 q 96 85 108 70 q 120 56 120 32 q 120 11 115 -10 q 110 -32 100 -52 q 90 -72 76 -92 q 62 -110 44 -126 l 36 -119 q 34 -117 34 -115 q 33 -112 33 -110 q 33 -106 41 -97 q 48 -88 58 -73 q 68 -59 77 -40 q 86 -22 88 0 q 86 -1 82 -2 q 78 -2 74 -2 q 55 -2 43 10 q 32 23 32 42 z"},"n":{"x_min":0,"x_max":511,"ha":511,"o":"m 46 0 l 106 499 l 128 499 q 145 499 145 481 l 130 337 q 151 376 176 408 q 200 439 228 461 q 256 482 284 494 q 314 505 343 505 q 398 505 426 468 q 454 432 454 364 q 454 360 454 354 q 454 348 453 336 q 452 323 449 300 q 446 278 442 239 q 438 200 431 142 q 424 84 414 0 l 367 0 l 404 318 q 408 341 408 362 q 408 412 388 438 q 369 465 328 465 q 300 465 271 451 q 242 436 216 410 q 189 384 166 347 q 142 310 124 263 l 94 0 z"},"h":{"x_min":0,"x_max":514,"ha":514,"o":"m 50 0 l 138 728 l 186 728 l 140 348 q 160 385 184 414 q 208 444 235 464 q 262 484 290 494 q 318 505 346 505 q 402 505 430 469 q 458 433 458 366 q 458 362 457 356 q 457 351 456 338 q 454 326 452 303 q 450 280 445 240 q 440 201 434 142 q 427 84 417 0 l 370 0 l 408 318 q 410 341 410 362 q 410 412 391 439 q 372 466 330 466 q 304 466 276 452 q 248 438 221 412 q 195 386 172 350 q 148 314 130 268 l 98 0 z"},"z":{"x_min":0,"x_max":418,"ha":418,"o":"m 410 478 q 409 468 402 458 l 66 38 l 346 38 l 341 0 l 4 0 l 6 19 q 6 23 9 28 q 12 33 16 38 l 352 460 l 75 460 l 80 498 l 414 498 z"},"B":{"x_min":0,"x_max":590,"ha":590,"o":"m 66 0 l 152 708 l 341 708 q 392 708 429 697 q 466 686 490 667 q 515 647 527 618 q 538 590 538 554 q 538 520 528 489 q 516 458 496 433 q 476 408 447 389 q 418 371 382 362 q 450 350 487 313 q 524 275 524 214 q 524 166 507 126 q 490 86 458 58 q 426 30 381 15 q 336 0 278 0 z m 157 340 l 120 40 l 282 40 q 375 40 424 85 q 474 130 474 213 q 474 242 464 265 q 454 288 434 305 q 414 322 385 330 q 356 340 320 340 z m 162 376 l 301 376 q 350 376 385 390 q 420 404 444 428 q 466 452 478 482 q 488 513 488 546 q 488 605 451 636 q 414 668 336 668 l 198 668 z"},"K":{"x_min":0,"x_max":608,"ha":608,"o":"m 175 380 l 214 380 q 230 380 240 384 q 250 388 262 399 l 558 693 q 566 702 574 704 q 580 708 590 708 l 630 708 l 310 389 q 300 380 293 374 q 286 368 277 365 q 286 362 292 356 q 299 350 306 340 l 562 0 l 522 0 q 508 0 504 4 q 499 7 494 13 l 260 320 q 255 326 251 330 q 248 334 242 336 q 238 339 230 340 q 224 342 212 342 l 170 342 l 128 0 l 79 0 l 166 708 l 216 708 z"},"R":{"x_min":0,"x_max":581,"ha":581,"o":"m 168 320 l 128 0 l 79 0 l 166 708 l 334 708 q 436 708 487 667 q 538 626 538 548 q 538 502 522 464 q 508 426 480 397 q 452 368 414 350 q 375 332 328 326 q 338 319 346 307 l 530 0 l 488 0 q 472 0 465 12 l 294 300 q 288 312 279 316 q 271 320 252 320 z m 211 668 l 172 358 l 284 358 q 332 358 369 370 q 407 384 434 408 q 460 432 474 466 q 488 500 488 541 q 488 605 448 636 q 407 668 329 668 z"},"T":{"x_min":0,"x_max":538,"ha":538,"o":"m 579 708 l 574 666 l 346 666 l 264 0 l 215 0 l 296 666 l 68 666 l 72 708 z"},"P":{"x_min":0,"x_max":547,"ha":547,"o":"m 164 286 l 128 0 l 79 0 l 166 708 l 336 708 q 440 708 492 661 q 544 614 544 530 q 544 476 525 431 q 506 386 472 354 q 438 322 390 304 q 342 286 284 286 z m 210 668 l 168 326 l 288 326 q 336 326 373 340 q 411 356 438 382 q 464 408 479 445 q 494 482 494 524 q 494 592 453 630 q 412 668 330 668 z"},"|":{"x_min":0,"x_max":300,"ha":300,"o":"m 101 758 l 138 758 l 138 -176 l 101 -176 z"},"t":{"x_min":0,"x_max":328,"ha":328,"o":"m 87 84 q 87 86 87 91 q 88 96 88 104 q 89 114 91 128 q 92 142 95 164 l 129 446 l 64 446 q 54 446 54 456 l 56 476 l 134 482 l 168 660 q 168 665 172 668 q 176 672 180 672 l 204 672 l 180 482 l 324 482 l 320 446 l 176 446 l 142 166 q 139 145 138 132 q 136 119 135 111 q 134 102 134 98 q 134 94 134 92 q 134 60 149 46 q 164 31 188 31 q 204 31 217 36 q 230 42 240 48 q 249 54 255 59 q 261 64 264 64 q 267 64 268 63 q 270 62 272 60 l 280 38 q 260 18 232 5 q 204 -8 175 -8 q 134 -8 111 14 q 88 37 87 84 z"},"M":{"x_min":0,"x_max":836,"ha":836,"o":"m 406 200 q 408 194 410 189 q 412 183 413 177 q 418 188 425 200 l 744 698 q 748 704 752 706 q 756 708 764 708 l 798 708 l 711 0 l 668 0 l 742 604 q 743 610 744 617 q 745 624 746 630 l 432 136 q 424 124 411 124 l 403 124 q 390 124 386 136 l 184 632 q 184 617 183 605 l 109 0 l 66 0 l 152 708 l 186 708 q 194 708 198 706 q 202 705 204 698 l 406 200 z"},"g":{"x_min":0,"x_max":440,"ha":440,"o":"m 380 368 q 380 340 373 318 q 366 296 356 277 q 346 258 335 242 q 323 226 313 210 q 303 194 296 178 q 290 162 290 144 q 290 130 296 117 q 302 104 311 92 q 320 80 330 68 q 340 56 349 42 q 358 28 364 12 q 370 -4 370 -23 q 370 -54 354 -84 q 338 -113 309 -136 q 280 -158 239 -172 q 198 -185 148 -185 q 109 -185 76 -177 q 44 -169 20 -154 q -4 -138 -17 -116 q -30 -94 -30 -66 q -30 -30 -11 -3 q 8 25 40 44 q 72 63 115 73 q 158 83 206 83 q 224 83 240 82 q 258 80 275 78 q 266 90 261 102 q 255 116 255 132 q 255 149 261 167 q 267 185 284 210 q 264 196 241 189 q 218 182 191 182 q 162 182 138 190 q 114 200 96 217 q 78 235 68 261 q 58 286 58 320 q 58 355 70 388 q 82 422 106 448 q 129 474 163 489 q 197 505 240 505 q 266 505 288 499 q 311 492 328 480 l 458 480 l 456 464 q 456 459 453 455 q 450 452 442 450 l 362 444 q 370 428 376 410 q 380 390 380 368 z m 326 -26 q 326 -2 318 16 q 310 34 299 48 l 300 46 q 275 50 253 52 q 231 54 210 54 q 161 54 124 44 q 88 35 64 19 q 40 4 27 -18 q 15 -38 15 -62 q 15 -83 25 -100 q 34 -116 52 -128 q 70 -139 96 -145 q 122 -151 152 -151 q 192 -151 224 -140 q 256 -130 278 -112 q 301 -95 314 -72 q 326 -50 326 -26 z m 202 212 q 234 212 259 226 q 284 240 302 261 q 320 283 328 311 q 338 338 338 366 q 338 418 310 445 q 282 471 236 471 q 204 471 179 458 q 154 446 137 424 q 120 404 110 376 q 102 349 102 320 q 102 268 128 240 q 156 212 202 212 z"},"j":{"x_min":0,"x_max":219,"ha":219,"o":"m 164 498 l 96 -64 q 92 -90 82 -112 q 72 -134 57 -150 q 41 -166 19 -175 q -2 -184 -29 -184 q -44 -184 -54 -182 q -64 -180 -74 -174 l -72 -163 q -69 -152 -67 -148 q -66 -144 -62 -144 q -58 -144 -51 -146 q -44 -148 -34 -148 q 4 -148 24 -126 q 44 -104 50 -64 l 118 498 z m 202 669 q 202 660 198 652 q 194 644 188 638 q 182 632 175 629 q 167 626 159 626 q 150 626 143 629 q 136 632 130 638 q 124 644 121 652 q 118 660 118 669 q 118 678 121 686 q 124 694 130 700 q 136 706 144 710 q 151 714 160 714 q 168 714 175 710 q 183 706 189 700 q 195 694 198 686 q 202 678 202 669 z"},"i":{"x_min":0,"x_max":226,"ha":226,"o":"m 166 498 l 106 0 l 60 0 l 120 498 z m 203 669 q 203 660 200 652 q 196 644 190 638 q 184 632 176 629 q 168 626 160 626 q 152 626 144 629 q 137 632 131 638 q 126 644 122 652 q 118 660 118 669 q 118 678 122 686 q 126 694 131 700 q 137 706 144 710 q 152 714 160 714 q 168 714 176 710 q 184 706 190 700 q 196 694 200 686 q 203 678 203 669 z"},"y":{"x_min":0,"x_max":450,"ha":450,"o":"m 125 -162 q 118 -176 104 -176 l 71 -176 l 176 18 l 42 498 l 80 498 q 86 498 90 494 q 93 491 94 486 l 200 98 q 202 91 202 84 q 203 76 204 68 q 207 76 210 84 q 214 92 218 98 l 418 487 q 420 492 425 495 q 430 498 434 498 l 470 498 z"},"@":{"x_min":0,"x_max":752,"ha":752,"o":"m 516 94 q 480 94 462 114 q 444 133 444 169 q 444 172 444 176 q 444 180 444 184 q 413 138 378 117 q 343 96 305 96 q 282 96 266 104 q 250 112 239 126 q 228 140 223 160 q 218 178 218 200 q 218 230 226 261 q 234 292 250 321 q 266 350 288 376 q 310 401 339 420 q 367 439 401 450 q 435 461 474 461 q 498 461 520 457 q 540 452 557 444 l 494 270 q 482 240 477 218 q 472 195 472 179 q 472 162 477 152 q 482 142 489 136 q 496 130 506 127 q 516 125 526 125 q 556 125 584 143 q 613 162 636 195 q 658 229 672 277 q 686 324 686 384 q 686 446 666 492 q 648 540 614 570 q 582 602 536 617 q 492 633 440 633 q 394 633 350 619 q 306 606 266 580 q 226 554 193 518 q 160 482 135 436 q 111 390 97 335 q 84 281 84 220 q 84 146 105 89 q 126 32 165 -7 q 203 -46 255 -66 q 306 -86 368 -86 q 436 -86 494 -69 q 552 -52 600 -21 q 606 -18 610 -18 q 619 -18 620 -26 l 624 -42 q 568 -79 504 -99 q 440 -119 364 -119 q 295 -119 237 -96 q 179 -74 137 -30 q 96 13 72 75 q 48 138 48 217 q 48 282 64 340 q 78 398 105 448 q 132 498 168 538 q 205 578 249 606 q 293 634 342 650 q 392 665 444 665 q 500 665 550 647 q 600 628 638 593 q 676 557 698 504 q 720 452 720 384 q 720 319 703 266 q 686 212 658 174 q 630 136 593 115 q 556 94 516 94 z m 318 128 q 335 128 353 134 q 371 140 389 156 q 407 172 424 198 q 442 226 457 268 l 513 423 q 502 426 490 428 q 479 430 464 430 q 434 430 408 421 q 380 412 358 395 q 334 379 316 357 q 297 335 284 310 q 270 286 263 259 q 256 232 256 206 q 256 190 260 175 q 264 161 271 150 q 279 140 291 134 q 302 128 318 128 z"},".":{"x_min":0,"x_max":198,"ha":198,"o":"m 29 38 q 29 48 32 56 q 36 65 42 71 q 48 78 57 81 q 65 85 75 85 q 84 85 93 81 q 102 78 108 71 q 114 65 118 56 q 122 48 122 38 q 122 19 108 6 q 94 -8 75 -8 q 56 -8 42 6 q 29 19 29 38 z"},"p":{"x_min":0,"x_max":504,"ha":504,"o":"m 24 -176 l 106 499 l 128 499 q 146 499 146 481 l 130 324 q 149 365 173 398 q 198 432 225 455 q 252 479 282 492 q 311 505 342 505 q 374 505 398 492 q 423 480 440 457 q 456 434 464 402 q 473 370 473 330 q 473 291 465 251 q 457 212 442 174 q 428 137 406 104 q 385 71 358 46 q 331 22 299 8 q 266 -6 230 -6 q 190 -6 156 12 q 122 30 100 64 l 70 -176 z m 326 466 q 298 466 269 451 q 240 435 214 406 q 187 377 164 336 q 140 296 122 246 l 104 102 q 126 63 158 47 q 190 31 225 31 q 256 31 284 44 q 311 56 333 78 q 356 100 373 130 q 390 159 402 192 q 414 224 420 258 q 426 292 426 325 q 426 392 400 429 q 375 466 326 466 z"},"X":{"x_min":0,"x_max":554,"ha":554,"o":"m 259 378 l 84 708 l 128 708 q 136 708 139 705 q 142 702 144 697 l 295 404 q 298 410 302 416 l 518 698 q 526 708 534 708 l 584 708 l 328 380 l 526 0 l 482 0 q 474 0 471 4 q 468 8 466 12 l 293 352 q 292 348 290 346 q 288 342 286 340 l 36 12 q 32 6 27 3 q 22 0 16 0 l -33 0 z"},"*":{"x_min":0,"x_max":368,"ha":368,"o":"m 188 449 l 202 556 q 202 564 204 571 q 206 578 211 586 q 206 578 199 574 q 193 570 186 566 l 94 511 l 84 532 l 177 588 q 184 592 191 594 q 198 596 207 598 q 198 599 192 601 q 186 603 180 608 l 100 662 l 114 684 l 194 630 q 202 625 206 620 q 210 615 215 606 q 213 613 212 618 q 211 624 211 630 q 211 632 211 634 q 211 636 212 639 l 224 746 l 250 746 l 236 640 q 236 630 233 624 q 231 616 226 608 q 232 616 238 620 q 244 625 252 630 l 344 684 l 354 662 l 261 608 q 254 603 247 600 q 240 598 231 597 q 240 596 246 594 q 252 592 258 588 l 338 532 l 324 511 l 244 566 q 238 570 233 574 q 229 578 224 586 q 226 579 226 574 q 227 570 227 564 q 227 562 227 560 q 227 558 226 556 l 213 449 z"},"Y":{"x_min":0,"x_max":554,"ha":554,"o":"m 308 292 l 271 0 l 222 0 l 258 292 l 68 708 l 112 708 q 118 708 122 704 q 126 700 128 695 l 278 361 q 282 352 284 344 q 286 336 288 328 q 292 336 296 344 q 300 352 306 361 l 538 695 q 542 700 546 704 q 550 708 558 708 l 599 708 z"},"c":{"x_min":0,"x_max":430,"ha":430,"o":"m 398 91 q 372 62 348 42 q 324 24 301 12 q 278 2 255 -2 q 232 -6 205 -6 q 162 -6 130 8 q 98 23 78 50 q 56 76 46 112 q 36 149 36 192 q 36 232 44 270 q 52 309 68 344 q 83 379 105 408 q 127 438 154 460 q 182 481 214 493 q 246 506 283 506 q 308 506 327 501 q 347 496 364 487 q 380 478 394 466 q 407 454 418 438 l 404 422 q 400 416 394 416 q 389 416 382 424 q 374 432 362 441 q 350 450 330 458 q 311 466 282 466 q 240 466 203 444 q 167 422 140 384 q 114 346 98 296 q 83 246 83 192 q 83 158 91 128 q 98 98 115 77 q 131 56 156 44 q 180 32 214 32 q 240 32 261 37 q 282 43 298 52 q 314 60 327 70 q 339 80 348 89 q 358 98 365 103 q 372 109 377 109 q 382 109 388 104 l 398 91 z"},"!":{"x_min":0,"x_max":298,"ha":298,"o":"m 230 708 l 195 422 q 192 399 189 379 q 186 359 182 338 q 179 318 175 294 q 170 272 166 244 l 134 244 q 136 272 138 294 q 140 318 141 338 q 143 359 145 379 q 147 399 150 422 l 184 708 z m 82 38 q 82 48 85 56 q 88 65 95 71 q 101 78 109 81 q 118 85 128 85 q 137 85 146 81 q 154 78 160 71 q 166 65 170 56 q 174 48 174 38 q 174 28 170 20 q 166 12 160 6 q 154 0 146 -4 q 137 -8 128 -8 q 108 -8 95 6 q 82 19 82 38 z"},"/":{"x_min":0,"x_max":330,"ha":330,"o":"m 11 -24 q 6 -33 -2 -38 q -10 -42 -18 -42 l -37 -42 l 338 704 q 347 722 366 722 l 386 722 z"},"[":{"x_min":0,"x_max":276,"ha":276,"o":"m 34 -132 l 143 758 l 290 758 l 288 740 q 287 734 283 731 q 278 727 272 727 l 178 727 l 76 -100 l 170 -100 q 176 -100 180 -103 q 184 -106 184 -112 q 184 -112 183 -115 q 183 -118 181 -132 z"},"6":{"x_min":0,"x_max":580,"ha":580,"o":"m 335 422 q 377 422 411 409 q 446 396 470 372 q 494 348 508 314 q 522 280 522 240 q 522 186 501 140 q 481 94 446 62 q 410 29 362 10 q 314 -8 259 -8 q 214 -8 178 6 q 142 20 116 46 q 91 72 77 108 q 64 145 64 191 q 64 220 70 248 q 77 276 92 306 q 106 336 128 368 q 151 400 182 436 l 408 696 q 412 701 419 704 q 426 708 434 708 l 474 708 l 230 432 q 210 410 195 392 q 180 373 166 356 q 200 387 243 405 q 286 422 335 422 z m 108 189 q 108 155 118 126 q 128 97 148 76 q 168 54 197 42 q 226 30 263 30 q 310 30 349 46 q 388 61 416 88 q 444 115 459 152 q 474 190 474 233 q 474 268 464 296 q 452 325 432 345 q 412 365 383 376 q 354 386 318 386 q 271 386 232 370 q 194 352 166 325 q 138 297 123 262 q 108 226 108 189 z"},"r":{"x_min":0,"x_max":335,"ha":335,"o":"m 46 0 l 106 499 l 128 499 q 146 499 146 481 l 131 333 q 165 414 209 459 q 252 503 302 503 q 322 503 344 494 l 336 450 q 312 458 292 458 q 239 458 196 406 q 154 353 123 254 l 93 0 z"},"2":{"x_min":0,"x_max":580,"ha":580,"o":"m 358 716 q 395 716 428 705 q 460 694 485 674 q 510 653 524 622 q 538 590 538 550 q 538 504 524 466 q 509 428 484 395 q 458 361 425 329 q 391 297 354 263 l 102 35 q 118 39 136 41 q 154 43 171 43 l 479 43 q 494 43 494 26 l 490 0 l 35 0 l 37 16 q 38 22 41 28 q 44 33 48 37 l 321 282 q 358 316 390 346 q 421 377 444 408 q 466 439 478 472 q 491 506 491 544 q 491 578 480 603 q 468 628 449 644 q 430 660 404 668 q 379 676 350 676 q 316 676 287 666 q 258 656 234 638 q 210 620 193 594 q 176 568 166 537 q 162 528 157 524 q 152 520 144 520 q 141 520 139 521 l 116 524 q 128 570 150 605 q 174 640 205 665 q 236 690 275 702 q 314 716 358 716 z"},"{":{"x_min":0,"x_max":276,"ha":276,"o":"m 98 234 q 98 262 81 280 q 64 298 36 298 l 39 328 q 76 328 99 357 q 122 386 122 446 q 122 476 118 510 q 115 545 115 575 q 115 618 126 651 q 136 685 156 709 q 176 732 203 745 q 231 758 266 758 l 291 758 l 289 738 q 288 732 284 730 q 279 727 275 727 l 260 727 q 232 727 212 714 q 192 702 179 680 q 167 658 162 631 q 156 604 156 574 q 156 542 159 508 q 161 476 161 444 q 161 422 157 401 q 153 380 143 362 q 134 345 118 332 q 102 320 79 313 q 91 310 102 303 q 112 296 120 286 q 128 276 132 263 q 137 250 137 234 q 137 203 128 174 q 120 144 110 114 q 100 84 91 54 q 82 23 82 -10 q 82 -30 88 -46 q 94 -63 103 -75 q 113 -87 127 -94 q 141 -100 158 -100 l 174 -100 q 178 -100 181 -102 q 184 -105 184 -110 q 184 -110 184 -110 q 184 -111 184 -113 q 184 -116 184 -120 q 183 -124 182 -132 l 156 -132 q 128 -132 107 -122 q 86 -113 72 -96 q 57 -80 50 -58 q 42 -36 42 -10 q 42 24 51 55 q 60 86 70 115 q 80 144 89 174 q 98 202 98 234 z"},"9":{"x_min":0,"x_max":580,"ha":580,"o":"m 294 301 q 254 301 222 314 q 188 326 165 350 q 142 372 129 405 q 116 438 116 477 q 116 528 136 572 q 156 616 190 647 q 224 679 270 697 q 316 716 369 716 q 412 716 446 702 q 481 688 506 662 q 530 636 544 601 q 557 566 557 522 q 557 488 550 460 q 542 432 528 404 q 513 376 492 347 q 470 318 442 284 l 222 11 q 214 0 198 0 l 156 0 l 401 292 q 417 312 432 330 q 448 350 462 370 q 430 337 386 319 q 342 301 294 301 z m 512 524 q 512 558 502 586 q 491 614 472 634 q 452 654 424 666 q 397 677 364 677 q 321 677 284 663 q 248 648 220 623 q 194 597 178 561 q 163 526 163 482 q 163 449 173 422 q 184 395 203 376 q 222 358 250 348 q 277 338 311 338 q 358 338 395 354 q 432 370 458 396 q 484 422 498 456 q 512 490 512 524 z"}," ":{"x_min":0,"x_max":193,"ha":193,"o":""},"I":{"x_min":0,"x_max":275,"ha":275,"o":"m 132 0 l 82 0 l 169 708 l 219 708 z"},"H":{"x_min":0,"x_max":696,"ha":696,"o":"m 570 0 l 520 0 l 561 340 l 157 340 l 116 0 l 66 0 l 152 708 l 202 708 l 162 377 l 566 377 l 606 708 l 656 708 z"},"4":{"x_min":0,"x_max":580,"ha":580,"o":"m 429 240 l 559 240 l 556 216 q 555 210 552 207 q 548 204 541 204 l 424 204 l 400 0 l 358 0 l 383 204 l 50 204 q 43 204 38 207 q 34 210 32 216 l 31 238 l 444 708 l 486 708 z m 433 614 q 434 630 440 649 l 82 240 l 388 240 z"},"~":{"x_min":0,"x_max":580,"ha":580,"o":"m 360 284 q 378 284 393 290 q 408 297 419 309 q 430 321 435 338 q 441 354 441 374 l 480 374 q 480 346 472 322 q 464 299 449 282 q 434 264 412 254 q 390 244 362 244 q 336 244 310 254 q 283 264 257 276 q 230 288 206 297 q 182 307 160 307 q 141 307 126 300 q 112 294 101 282 q 90 270 85 253 q 79 236 78 217 l 40 217 q 40 244 48 268 q 56 292 71 309 q 86 326 108 336 q 130 346 158 346 q 184 346 210 337 q 237 327 263 315 q 289 303 314 293 q 338 284 360 284 z"},"D":{"x_min":0,"x_max":699,"ha":699,"o":"m 662 408 q 662 345 650 290 q 638 236 615 191 q 592 146 560 110 q 528 74 488 50 q 448 26 402 13 q 355 0 304 0 l 66 0 l 152 708 l 390 708 q 453 708 504 686 q 554 665 589 626 q 624 587 644 532 q 662 476 662 408 z m 611 406 q 611 467 595 516 q 580 564 550 598 q 521 631 479 649 q 438 667 386 667 l 198 667 l 120 40 l 308 40 q 374 40 430 65 q 485 90 526 137 q 566 184 588 252 q 611 320 611 406 z"},"^":{"x_min":0,"x_max":580,"ha":580,"o":"m 302 708 l 332 708 l 502 400 l 468 400 q 463 400 458 403 q 454 406 452 412 l 331 630 q 322 645 317 660 q 314 652 311 645 q 308 638 304 630 l 184 412 q 182 408 178 404 q 174 400 166 400 l 132 400 z"},"0":{"x_min":0,"x_max":580,"ha":580,"o":"m 347 716 q 393 716 432 698 q 471 680 500 644 q 528 608 544 553 q 560 499 560 426 q 560 316 536 234 q 511 153 470 99 q 428 46 373 19 q 318 -8 258 -8 q 212 -8 173 10 q 134 28 106 64 q 77 100 61 155 q 45 209 45 282 q 45 392 70 473 q 94 555 136 609 q 178 662 232 689 q 287 716 347 716 z m 264 32 q 314 32 358 55 q 403 79 437 128 q 472 176 492 251 q 512 325 512 426 q 512 491 499 538 q 486 586 462 616 q 440 647 408 662 q 377 676 342 676 q 292 676 247 653 q 202 629 168 580 q 134 532 113 457 q 93 383 93 282 q 93 217 106 170 q 120 122 143 92 q 166 61 197 46 q 228 32 264 32 z"},"F":{"x_min":0,"x_max":526,"ha":526,"o":"m 538 666 l 198 666 l 160 367 l 456 367 l 450 326 l 156 326 l 116 0 l 66 0 l 152 708 l 544 708 z"},"`":{"x_min":0,"x_max":270,"ha":270,"o":"m 108 716 q 120 716 124 712 q 130 708 134 700 l 191 580 l 164 580 q 154 580 148 588 l 64 716 z"},"k":{"x_min":0,"x_max":443,"ha":443,"o":"m 184 728 l 130 284 l 148 284 q 158 284 163 286 q 168 288 176 296 l 382 485 q 388 490 394 494 q 399 498 408 498 l 448 498 l 221 289 q 216 284 211 280 q 206 276 200 272 q 208 268 212 263 q 216 258 221 251 l 403 0 l 363 0 q 356 0 352 2 q 347 5 342 12 l 178 236 q 170 244 164 248 q 158 251 144 251 l 126 251 l 96 0 l 49 0 l 138 728 z"},"u":{"x_min":0,"x_max":510,"ha":510,"o":"m 144 498 l 106 181 q 104 158 104 138 q 104 86 123 60 q 142 33 184 33 q 211 33 239 47 q 267 61 294 87 q 320 114 344 150 q 367 187 385 233 l 417 498 l 464 498 l 404 0 l 382 0 q 372 0 368 5 q 364 10 364 18 l 379 160 q 358 120 334 90 q 309 58 282 37 q 254 16 226 5 q 196 -6 168 -6 q 112 -6 84 30 q 56 67 56 135 q 56 140 57 145 q 57 150 58 163 q 60 176 62 198 q 64 220 69 259 q 74 298 80 356 q 87 414 97 498 z"},"]":{"x_min":0,"x_max":276,"ha":276,"o":"m 112 758 l 260 758 l 150 -132 l 2 -132 l 4 -114 q 6 -108 10 -104 q 14 -100 21 -100 l 114 -100 l 216 727 l 122 727 q 110 727 110 738 z"},"U":{"x_min":0,"x_max":674,"ha":674,"o":"m 312 35 q 358 35 397 53 q 436 71 465 102 q 494 134 514 177 q 532 220 538 270 l 592 708 l 642 708 l 588 270 q 580 211 557 160 q 534 110 497 72 q 460 34 412 13 q 364 -8 306 -8 q 254 -8 214 9 q 174 27 146 58 q 118 89 104 132 q 90 174 90 225 q 90 247 92 270 l 146 708 l 196 708 l 142 270 q 141 260 140 250 q 140 240 140 230 q 140 188 151 152 q 162 116 184 90 q 206 64 238 50 q 270 35 312 35 z"},"o":{"x_min":0,"x_max":493,"ha":493,"o":"m 216 31 q 260 31 296 54 q 332 76 357 114 q 382 152 396 201 q 410 250 410 301 q 410 381 374 424 q 339 468 276 468 q 247 468 222 458 q 196 448 174 429 q 153 410 136 385 q 118 360 107 330 q 95 300 89 266 q 82 233 82 198 q 82 118 118 75 q 153 31 216 31 z m 212 -6 q 172 -6 140 8 q 107 22 84 48 q 60 74 48 112 q 35 150 35 198 q 35 258 53 314 q 71 370 104 412 q 136 455 182 480 q 226 506 280 506 q 320 506 353 491 q 386 477 409 451 q 432 424 445 386 q 458 348 458 302 q 458 241 440 186 q 422 130 389 87 q 356 44 312 19 q 266 -6 212 -6 z"},"N":{"x_min":0,"x_max":695,"ha":695,"o":"m 177 708 q 184 708 187 706 q 190 704 194 698 l 537 82 q 538 89 538 95 q 538 102 539 107 l 613 708 l 656 708 l 570 0 l 546 0 q 534 0 528 11 l 184 627 l 183 604 l 109 0 l 66 0 l 152 708 l 177 708 z"},"+":{"x_min":0,"x_max":580,"ha":580,"o":"m 349 578 l 322 353 l 538 353 l 534 318 l 317 318 l 290 91 l 252 91 l 280 318 l 64 318 l 68 353 l 284 353 l 312 578 z"},"G":{"x_min":0,"x_max":688,"ha":688,"o":"m 350 32 q 383 32 411 36 q 438 40 463 48 q 488 55 510 66 q 532 76 555 90 l 579 282 l 456 282 q 444 282 444 292 q 444 292 444 292 q 444 293 445 296 q 445 298 446 304 q 446 310 448 320 l 629 320 l 598 70 q 571 51 543 36 q 516 22 484 12 q 453 2 418 -3 q 383 -8 342 -8 q 278 -8 227 14 q 176 36 140 77 q 104 118 85 174 q 66 231 66 300 q 66 394 93 470 q 120 547 170 602 q 220 656 288 686 q 356 716 438 716 q 477 716 508 710 q 540 704 566 693 q 592 682 614 666 q 635 650 654 630 l 638 610 q 632 602 626 602 q 622 602 618 604 q 613 606 606 612 q 600 618 590 626 q 580 634 566 642 q 552 650 534 657 q 515 664 490 668 q 466 672 434 672 q 364 672 306 646 q 247 620 205 572 q 162 524 139 456 q 116 387 116 302 q 116 240 132 190 q 149 140 180 105 q 210 70 253 51 q 296 32 350 32 z"},"q":{"x_min":0,"x_max":489,"ha":489,"o":"m 360 -176 l 334 -176 q 324 -176 319 -170 q 315 -165 315 -156 q 315 -152 316 -150 l 355 164 q 336 126 314 94 q 292 63 266 40 q 241 18 213 6 q 186 -6 156 -6 q 124 -6 100 6 q 77 18 61 40 q 46 63 38 95 q 30 127 30 167 q 30 210 40 252 q 52 294 72 332 q 92 369 120 400 q 148 432 182 455 q 216 478 254 491 q 292 504 334 504 q 364 504 390 499 q 416 494 441 480 z m 171 33 q 200 33 227 49 q 254 64 279 94 q 304 122 326 163 q 348 204 366 253 l 366 254 l 392 458 q 362 468 328 468 q 294 468 263 457 q 232 446 204 426 q 176 406 153 378 q 130 351 112 318 q 96 286 86 249 q 77 212 77 174 q 77 108 100 70 q 122 33 171 33 z"},"d":{"x_min":0,"x_max":510,"ha":510,"o":"m 375 0 q 366 0 362 4 q 358 9 358 16 l 374 174 q 355 134 331 100 q 306 67 280 43 q 252 20 223 6 q 194 -6 163 -6 q 130 -6 106 6 q 82 18 65 42 q 48 64 40 97 q 32 130 32 170 q 32 208 40 248 q 48 288 62 325 q 77 362 98 395 q 120 428 146 452 q 174 476 206 491 q 238 505 274 505 q 314 505 348 487 q 382 470 404 434 l 441 728 l 487 728 l 398 0 z m 178 32 q 207 32 236 48 q 264 64 291 92 q 318 122 341 162 q 364 203 382 252 l 400 396 q 378 436 346 452 q 314 468 280 468 q 248 468 221 455 q 194 442 171 420 q 149 398 132 369 q 114 340 103 308 q 91 275 85 240 q 78 206 78 174 q 78 107 104 70 q 130 32 178 32 z"},"1":{"x_min":0,"x_max":580,"ha":580,"o":"m 129 36 l 292 36 l 364 616 l 371 651 l 194 509 q 188 504 182 504 q 174 504 170 510 l 159 530 l 384 710 l 421 710 l 338 36 l 493 36 l 489 0 l 125 0 z"},"5":{"x_min":0,"x_max":580,"ha":580,"o":"m 537 688 q 536 678 529 671 q 522 665 508 665 l 250 665 l 178 427 q 243 442 296 442 q 348 442 387 429 q 426 416 451 391 q 477 367 490 334 q 502 300 502 260 q 502 198 480 148 q 457 98 419 64 q 380 29 331 10 q 281 -8 226 -8 q 198 -8 172 -3 q 146 2 124 11 q 102 20 83 31 q 65 42 52 54 l 68 74 q 74 81 82 81 q 88 81 100 74 q 111 66 129 57 q 147 48 173 40 q 198 32 234 32 q 279 32 319 48 q 360 63 390 92 q 420 120 438 161 q 455 202 455 255 q 455 288 445 315 q 435 342 414 362 q 393 382 361 392 q 328 404 284 404 q 230 404 157 385 l 129 394 l 222 708 l 540 708 z"}}}
